<svg width="512" height="512" viewBox="0 0 512 512" xmlns="http://www.w3.org/2000/svg">
  <defs>
    <linearGradient id="g" x1="0" y1="0" x2="1" y2="1">
      <stop offset="0%" stop-color="#38bdf8"/>
      <stop offset="100%" stop-color="#0ea5e9"/>
    </linearGradient>
  </defs>
  <rect width="512" height="512" rx="128" fill="#08111f"/>
  <rect x="88" y="88" width="336" height="336" rx="96" fill="url(#g)"/>
  <path d="M196 176h120c36.451 0 66 29.549 66 66v74c0 36.451-29.549 66-66 66H196c-36.451 0-66-29.549-66-66v-74c0-36.451 29.549-66 66-66zm8 58c-15.464 0-28 12.536-28 28v34c0 15.464 12.536 28 28 28h109l-48-48h-61c-10.493 0-19-8.507-19-19s8.507-19 19-19h78c5.039 0 9.872 2 13.435 5.565l64 64c3.565 3.563 5.565 8.396 5.565 13.435 0 10.493-8.507 19-19 19h-30l40 40c7.418 7.418 7.418 19.446 0 26.864-7.418 7.418-19.446 7.418-26.864 0l-66.864-66.864c-3.566-3.565-5.572-8.4-5.572-13.442 0-10.493 8.507-19 19-19h22v-15c0-15.464-12.536-28-28-28H204z" fill="#ffffff"/>
</svg>
